<svg width="256" height="256" viewBox="0 0 256 256" fill="none" xmlns="http://www.w3.org/2000/svg">
<path d="M33.9091 61.681C33.9091 53.0473 39.786 45.5216 48.1632 43.4276L219.618 0.57104C231.495 -2.39773 243 6.5838 243 18.8244V89.7907C243 98.4244 237.123 105.95 228.746 108.044L57.2914 150.901C45.4143 153.869 33.9091 144.888 33.9091 132.647V61.681Z" fill="#D9D9D9"/>
<path d="M13 166.209C13 157.576 18.8769 150.05 27.2541 147.956L198.709 105.099C210.586 102.131 222.091 111.112 222.091 123.353V194.319C222.091 202.953 216.214 210.478 207.837 212.572L36.3823 255.429C24.5052 258.398 13 249.416 13 237.176V166.209Z" fill="#D9D9D9"/>
<path d="M44.3636 73.5651C44.3636 59.1757 54.1584 46.6328 68.1205 43.1429L193.575 11.7844C213.37 6.83648 232.545 21.8057 232.545 42.2066V77.9066C232.545 92.296 222.751 104.839 208.789 108.329L83.3341 139.687C63.5391 144.635 44.3636 129.666 44.3636 109.265V73.5651Z" fill="#9C3131"/>
<path d="M23.4545 178.093C23.4545 163.704 33.2493 151.161 47.2114 147.671L172.666 116.313C192.461 111.365 211.636 126.334 211.636 146.735V179.299C211.636 193.688 201.842 206.231 187.88 209.721L62.425 241.08C42.63 246.028 23.4545 231.058 23.4545 210.658V178.093Z" fill="#9C3131"/>
<path d="M170.125 128.987L104.17 177.585C100.028 180.526 94.5455 177.285 94.5455 171.894V74.6982C94.5455 69.3078 100.028 66.0662 104.17 69.0073L170.125 117.606C173.898 120.284 173.898 126.309 170.125 128.987Z" fill="#D9D9D9"/>
</svg>
